<svg xmlns="http://www.w3.org/2000/svg" version="1.1" xmlns:xlink="http://www.w3.org/1999/xlink" xmlns:svgjs="http://svgjs.dev/svgjs" width="1500" height="1500" viewBox="0 0 1500 1500"><rect width="1500" height="1500" fill="#000000"></rect><g transform="matrix(0.6666666666666666,0,0,0.6666666666666666,249.39393939393932,563.6938715024703)"><svg viewBox="0 0 396 148" data-background-color="#000000" preserveAspectRatio="xMidYMid meet" height="560" width="1500" xmlns="http://www.w3.org/2000/svg" xmlns:xlink="http://www.w3.org/1999/xlink"><g id="tight-bounds" transform="matrix(1,0,0,1,0.24000000000003752,-0.14292763133640563)"><svg viewBox="0 0 395.5199999999999 148.2858552626728" height="148.2858552626728" width="395.5199999999999"><g><svg viewBox="0 0 651.7551599999999 244.35191980800002" height="148.2858552626728" width="395.5199999999999"><g transform="matrix(1,0,0,1,256.23516,33.75540865725644)"><svg viewBox="0 0 395.52 176.84110249348714" height="176.84110249348714" width="395.52"><g id="textblocktransform"><svg viewBox="0 0 395.52 176.84110249348714" height="176.84110249348714" width="395.52" id="textblock"><g><svg viewBox="0 0 395.52 176.84110249348714" height="176.84110249348714" width="395.52"><rect width="395.52" height="176.84110249348714" x="0" y="0" opacity="1" fill="#68aeeb" data-fill-palette-color="tertiary"></rect><g transform="matrix(1,0,0,1,23.607599999999998,23.607600000000012)"><svg width="348.3048" viewBox="2.8 -37.5 134.33999999999997 50" height="129.62590249348713" data-palette-color="#463b84"><path d="M14.95-32.05L20.55-32.8 16.9-15.8Q19.6-15.85 21.6-17.05 23.6-18.25 24.95-20.1 26.3-21.95 26.95-24.2 27.6-26.45 27.6-28.6L27.6-28.6Q27.6-30 27.25-31.3 26.9-32.6 25.98-33.58 25.05-34.55 23.5-35.13 21.95-35.7 19.55-35.7L19.55-35.7Q17-35.7 14.65-34.88 12.3-34.05 10.53-32.45 8.75-30.85 7.68-28.53 6.6-26.2 6.6-23.15L6.6-23.15Q6.6-21.5 7-20.7 7.4-19.9 7.65-19.65L7.65-19.65Q5.4-19.65 4.1-20.68 2.8-21.7 2.8-24.25L2.8-24.25Q2.8-26.9 4.35-29.3 5.9-31.7 8.43-33.52 10.95-35.35 14.18-36.43 17.4-37.5 20.7-37.5L20.7-37.5Q23.6-37.5 25.75-36.68 27.9-35.85 29.33-34.5 30.75-33.15 31.45-31.35 32.15-29.55 32.15-27.6L32.15-27.6Q32.15-25.25 31.15-22.88 30.15-20.5 28.3-18.57 26.45-16.65 23.75-15.45 21.05-14.25 17.7-14.25L17.7-14.25 16.6-14.25 13.55 0 8.05 0 14.95-32.05ZM45.95-8.95L48.05-8.95Q46.35-7.1 44.67-5.85 43-4.6 41.45-3.65L41.45-3.65Q40.85-2.55 40.02-1.8 39.2-1.05 38.27-0.58 37.35-0.1 36.37 0.1 35.4 0.3 34.55 0.3L34.55 0.3Q32.65 0.3 31.27-0.28 29.9-0.85 29-1.75 28.1-2.65 27.67-3.8 27.25-4.95 27.25-6.1L27.25-6.1Q27.25-7.85 28.07-9.05 28.9-10.25 29.9-10.75L29.9-10.75Q32-14.5 33.45-18.18 34.9-21.85 36.05-25.55L36.05-25.55 41.3-26.55Q41.55-21.75 41.77-18.75 42-15.75 42.17-13.85 42.35-11.95 42.45-10.78 42.55-9.6 42.55-8.35L42.55-8.35Q42.55-7.9 42.52-7.48 42.5-7.05 42.45-6.65L42.45-6.65Q43.4-7.2 44.3-7.8 45.2-8.4 45.95-8.95L45.95-8.95ZM37.3-8.3L37.3-8.3Q37.3-9.35 37.22-10.25 37.15-11.15 37-12.5 36.85-13.85 36.65-15.9 36.45-17.95 36.25-21.2L36.25-21.2Q35.55-18.4 34.57-15.85 33.6-13.3 32.25-10.6L32.25-10.6Q32.55-10.35 32.75-9.95 32.95-9.55 32.95-8.95L32.95-8.95Q32.95-7.75 32.27-7.1 31.6-6.45 30.9-6.45L30.9-6.45Q30.1-6.45 29.7-7.15L29.7-7.15Q29.7-5.4 30.5-4.42 31.3-3.45 32.95-3.45L32.95-3.45Q34.85-3.45 36.07-4.55 37.3-5.65 37.3-8.3ZM49.3-25L54.34-25 50.7-8Q50.49-7.2 50.49-6.35L50.49-6.35Q50.49-4.9 51.14-4.2 51.8-3.5 52.74-3.5L52.74-3.5Q54.2-3.5 55.72-4.93 57.24-6.35 57.8-8.95L57.8-8.95 61.2-25 66.19-25 61.09-1Q62.45-1.45 63.57-2.02 64.69-2.6 65.59-3.53 66.5-4.45 67.25-5.75 68-7.05 68.64-8.95L68.64-8.95 70.5-8.95Q69.59-6.3 68.62-4.63 67.64-2.95 66.44-1.88 65.25-0.8 63.82-0.2 62.39 0.4 60.7 0.8L60.7 0.8 60.05 4Q59.49 6.7 58.82 8.35 58.14 10 57.32 10.93 56.49 11.85 55.49 12.18 54.49 12.5 53.24 12.5L53.24 12.5Q50.95 12.5 49.34 11.48 47.74 10.45 47.74 8L47.74 8Q47.74 6.75 48.47 5.68 49.2 4.6 50.34 3.65 51.49 2.7 52.92 1.95 54.34 1.2 55.74 0.65L55.74 0.65 56.39-2.5Q55.14-1.05 53.77-0.38 52.39 0.3 51.09 0.3L51.09 0.3Q49.95 0.3 48.95-0.18 47.95-0.65 47.2-1.5 46.45-2.35 46.02-3.6 45.59-4.85 45.59-6.4L45.59-6.4Q45.59-7.6 45.89-8.95L45.89-8.95 49.3-25ZM51.55 9.9L51.55 9.9Q52.95 9.9 53.7 8.3 54.45 6.7 54.99 4.1L54.99 4.1 55.34 2.5Q52.55 3.7 51.12 5.15 49.7 6.6 49.7 7.95L49.7 7.95Q49.7 8.8 50.17 9.35 50.64 9.9 51.55 9.9ZM82.09-17.35L82.09-17.35Q82.74-17.75 83.17-18.75 83.59-19.75 83.59-20.6L83.59-20.6Q83.59-21.45 83.04-22.03 82.49-22.6 81.34-22.6L81.34-22.6Q79.59-22.6 78.17-21.18 76.74-19.75 75.74-17.63 74.74-15.5 74.19-13.03 73.64-10.55 73.64-8.45L73.64-8.45Q73.64-5.85 74.62-4.67 75.59-3.5 78.04-3.5L78.04-3.5Q80.69-3.5 82.94-4.83 85.19-6.15 86.84-8.95L86.84-8.95 88.54-8.95Q87.54-7.1 86.14-5.43 84.74-3.75 83.07-2.48 81.39-1.2 79.49-0.45 77.59 0.3 75.59 0.3L75.59 0.3Q74.14 0.3 72.82-0.15 71.49-0.6 70.47-1.55 69.44-2.5 68.82-4.03 68.19-5.55 68.19-7.75L68.19-7.75Q68.19-9.15 68.49-11 68.79-12.85 69.42-14.78 70.04-16.7 71.04-18.6 72.04-20.5 73.49-21.98 74.94-23.45 76.84-24.35 78.74-25.25 81.14-25.25L81.14-25.25Q83.69-25.25 85.04-24.1 86.39-22.95 86.39-20.5L86.39-20.5Q86.39-18.75 85.72-17.53 85.04-16.3 83.74-16.3L83.74-16.3Q82.64-16.3 82.09-17.35ZM103.99-5.95L103.99-5.95Q103.99-4.9 104.29-4.2 104.59-3.5 105.49-3.5L105.49-3.5Q107.84-3.5 110.19-8.95L110.19-8.95 112.04-8.95Q110.84-5.8 109.64-3.95 108.44-2.1 107.32-1.18 106.19-0.25 105.22 0.03 104.24 0.3 103.49 0.3L103.49 0.3Q100.89 0.3 99.79-1.33 98.69-2.95 98.69-5.35L98.69-5.35Q98.69-7 99.07-8.8 99.44-10.6 99.89-12.35 100.34-14.1 100.72-15.73 101.09-17.35 101.09-18.7L101.09-18.7Q101.09-19.95 100.64-20.7 100.19-21.45 98.89-21.45L98.89-21.45Q95.69-21.45 93.34-16.1L93.34-16.1 89.89 0 84.89 0 92.24-34.3 97.39-35 94.44-21.25Q95.39-22.55 96.34-23.35 97.29-24.15 98.17-24.58 99.04-25 99.82-25.13 100.59-25.25 101.24-25.25L101.24-25.25Q102.74-25.25 103.74-24.8 104.74-24.35 105.34-23.58 105.94-22.8 106.17-21.78 106.39-20.75 106.39-19.6L106.39-19.6Q106.39-17.95 106.02-16.15 105.64-14.35 105.19-12.6 104.74-10.85 104.37-9.15 103.99-7.45 103.99-5.95ZM122.84-25.25L122.84-25.25Q125.84-25.25 127.14-23.23 128.44-21.2 128.49-17.35L128.49-17.35Q132.94-17.35 136.69-20.35L136.69-20.35 137.14-19Q135.74-17.4 133.41-16.32 131.09-15.25 128.39-14.9L128.39-14.9Q128.14-11.65 127.29-8.88 126.44-6.1 125.04-4.05 123.64-2 121.74-0.85 119.84 0.3 117.54 0.3L117.54 0.3Q115.89 0.3 114.46-0.13 113.04-0.55 111.99-1.5 110.94-2.45 110.34-3.95 109.74-5.45 109.74-7.6L109.74-7.6Q109.74-9.05 109.99-10.9 110.24-12.75 110.84-14.73 111.44-16.7 112.41-18.57 113.39-20.45 114.86-21.95 116.34-23.45 118.29-24.35 120.24-25.25 122.84-25.25ZM119.44-3.5L119.44-3.5Q120.54-3.5 121.61-4.28 122.69-5.05 123.56-6.5 124.44-7.95 125.06-10.03 125.69-12.1 125.94-14.75L125.94-14.75Q124.69-14.75 124.31-15.33 123.94-15.9 123.94-16.8L123.94-16.8Q123.94-18.1 124.54-18.68 125.14-19.25 126.09-19.35L126.09-19.35Q125.89-21.1 125.11-21.8 124.34-22.5 123.09-22.5L123.09-22.5Q121.84-22.5 120.76-21.8 119.69-21.1 118.81-19.98 117.94-18.85 117.26-17.38 116.59-15.9 116.14-14.35 115.69-12.8 115.46-11.28 115.24-9.75 115.24-8.5L115.24-8.5Q115.24-5.9 116.16-4.7 117.09-3.5 119.44-3.5Z" opacity="1" transform="matrix(1,0,0,1,0,0)" fill="#463b84" class="wordmark-text-0" data-fill-palette-color="quaternary" id="text-0"></path></svg></g></svg></g></svg></g></svg></g><g><svg viewBox="0 0 244.43136 244.35191980800002" height="244.35191980800002" width="244.43136"><g><svg xmlns="http://www.w3.org/2000/svg" xmlns:xlink="http://www.w3.org/1999/xlink" version="1.1" x="0" y="0" viewBox="0 -0.0004999999999999866 60 59.9805" style="enable-background:new 0 0 60 59.98;" xml:space="preserve" width="244.43136" height="244.35191980800002" class="icon-icon-0" data-fill-palette-color="accent" id="icon-0"><g fill="#dcdcdc" data-fill-palette-color="accent"><path d="M2 56.98v-13H0v13c0 1.654 1.346 3 3 3h7v-2H3C2.448 57.98 2 57.532 2 56.98z" fill="#dcdcdc" data-fill-palette-color="accent"></path><circle cx="27" cy="22.98" r="2.0" fill="#dcdcdc" data-fill-palette-color="accent"></circle><rect x="26" y="34.98" width="2" height="2" fill="#dcdcdc" data-fill-palette-color="accent"></rect><path d="M11.979 49.003L6.347 24.596c-0.084-0.362-0.402-0.616-0.775-0.616H4.796C4.357 23.98 4 24.337 4 24.776c0 0.06 0.007 0.12 0.021 0.181l5.633 24.407c0.084 0.362 0.402 0.616 0.775 0.616h0.775c0.438 0 0.796-0.357 0.796-0.796C12 49.125 11.993 49.064 11.979 49.003z" fill="#dcdcdc" data-fill-palette-color="accent"></path><path d="M4.24 34.8l-1.84 1.38C2.149 36.368 2 36.667 2 36.98v5h3.896L4.24 34.8z" fill="#dcdcdc" data-fill-palette-color="accent"></path><rect x="12.172" y="31.98" transform="matrix(0.7071 -0.7071 0.7071 0.7071 -18.927 20.2662)" width="5.657" height="2" fill="#dcdcdc" data-fill-palette-color="accent"></rect><rect x="13.95" y="37.48" transform="matrix(0.9806 -0.1961 0.1961 0.9806 -7.2261 3.9832)" width="5.099" height="2" fill="#dcdcdc" data-fill-palette-color="accent"></rect><rect x="16.5" y="42.287" transform="matrix(0.3714 -0.9285 0.9285 0.3714 -30.7622 44.5232)" width="2" height="5.385" fill="#dcdcdc" data-fill-palette-color="accent"></rect><path d="M24.452 11.312l-1.382 2.763 3.413-1.365 1 2L32 12.903l3.522 1.409c-0.396-0.918-1.03-1.722-1.855-2.332h-6.847l1.021-6.123-5.654-0.628L24.4 8.18l-3.119 2.339L24.452 11.312z" fill="#dcdcdc" data-fill-palette-color="accent"></path><path d="M31.178 0.13c-0.029-0.174-0.326-0.174-0.355 0l-0.308 1.85h0.972L31.178 0.13z" fill="#dcdcdc" data-fill-palette-color="accent"></path><polygon points="31.819,3.98 30.181,3.98 29.847,5.98 32.153,5.98  " fill="#dcdcdc" data-fill-palette-color="accent"></polygon><polygon points="32.486,7.98 29.514,7.98 29.181,9.98 32.819,9.98  " fill="#dcdcdc" data-fill-palette-color="accent"></polygon><path d="M53 19.98H38v15c0 1.926-0.613 3.708-1.647 5.173 2.005 1.197 4.282 1.827 6.647 1.827 7.168 0 13-5.832 13-13v-6C56 21.326 54.654 19.98 53 19.98zM44.764 37.98H40v-2h4.764c0.998 0 1.896-0.555 2.342-1.447l1.789 0.895C48.106 37.001 46.523 37.98 44.764 37.98zM48 28.98c-1.105 0-2-0.895-2-2 0-1.105 0.895-2 2-2s2 0.895 2 2C50 28.085 49.105 28.98 48 28.98z" fill="#dcdcdc" data-fill-palette-color="accent"></path><path d="M45.242 57.98H48v-2.758C47.25 56.296 46.316 57.23 45.242 57.98z" fill="#dcdcdc" data-fill-palette-color="accent"></path><path d="M43.094 43.98c-2.033 0-3.88 1.279-4.595 3.185l-1.806 4.815H28v2c1.103 0 2 0.897 2 2v2h8.906c5.015 0 9.094-4.079 9.094-9.094C48 46.181 45.799 43.98 43.094 43.98z" fill="#dcdcdc" data-fill-palette-color="accent"></path><path d="M58 23.98c0.203 0 0.398 0.031 0.593 0.06l0.708-2.124C59.765 20.523 60 19.073 60 17.606 60 10.092 53.888 3.98 46.374 3.98h-2.563c-3.402 0-6.725 1.131-9.435 3.174l0.546 3.273C36.851 11.885 38 14.148 38 16.585v1.395h15c2.757 0 5 2.243 5 5V23.98z" fill="#dcdcdc" data-fill-palette-color="accent"></path><polygon points="12,55.98 12,57.98 26,57.98 26,55.98 22,55.98  " fill="#dcdcdc" data-fill-palette-color="accent"></polygon><path d="M58 25.98v3c0 0.338-0.029 0.668-0.051 1H58c1.103 0 2-0.897 2-2S59.103 25.98 58 25.98z" fill="#dcdcdc" data-fill-palette-color="accent"></path><path d="M24.171 53.98H26v-1.829C25.148 52.453 24.473 53.128 24.171 53.98z" fill="#dcdcdc" data-fill-palette-color="accent"></path><path d="M36 34.98V16.657l-4-1.6-4.438 1.775-1.233 1.233C26.119 18.275 26 18.564 26 18.859c0 0.088 0.031 0.166 0.05 0.247 0.306-0.075 0.621-0.126 0.95-0.126 1.006 0 1.915 0.385 2.618 1h1.528c0.471 0 0.854-0.384 0.854-0.854 0-0.325-0.181-0.618-0.473-0.764l-0.975-0.487 0.895-1.789 0.975 0.487c0.929 0.465 1.505 1.38 1.558 2.407H34v2c0 2.516-1.874 4.583-4.296 4.929C28.991 26.568 28.046 26.98 27 26.98c-0.343 0-0.671-0.057-0.989-0.139l-3.876 2.584C22.05 29.482 22 29.576 22 29.677c0 0.167 0.136 0.303 0.303 0.303h3.461c0.998 0 1.896-0.555 2.342-1.447l1.789 0.895C29.142 30.93 27.663 31.88 26 31.964v0.836l3.672-0.611c0.575-0.099 1.172 0.065 1.621 0.446S32 33.572 32 34.161c0 2.704-1.936 4.989-4.604 5.434l-1.28 0.214c0.36 1.253 1.517 2.172 2.884 2.172C32.859 41.98 36 38.839 36 34.98z" fill="#dcdcdc" data-fill-palette-color="accent"></path></g></svg></g></svg></g></svg></g><defs></defs></svg><rect width="395.5199999999999" height="148.2858552626728" fill="none" stroke="none" visibility="hidden"></rect></g></svg></g></svg>